<svg xmlns="http://www.w3.org/2000/svg" width="48" height="48" viewBox="0 0 48 48"><rect width="100%" height="100%" fill="#FFFFFF"/><path fill="#0033A0" d="M11.785 21.51v.77h-1.52v4.29h-.94v-4.29h-1.53v-.77h3.99Zm1.4-.14v1.99q.21-.19.46-.31.25-.13.59-.13.29 0 .52.1.23.1.38.28.15.18.23.43.08.25.08.55v2.29h-.86v-2.29q0-.32-.15-.5-.15-.19-.46-.19-.23 0-.42.11-.2.1-.37.27v2.6h-.87v-5.2h.87Zm5.31 1.61h.86v3.59h-.52q-.18 0-.22-.16l-.06-.28q-.22.22-.49.36-.26.14-.62.14-.3 0-.52-.1-.23-.1-.38-.29-.16-.18-.24-.43-.07-.25-.07-.55v-2.28h.86v2.28q0 .33.15.51t.46.18q.22 0 .42-.1.2-.1.37-.27v-2.6Zm2.58 3.59h-.86v-3.59h.53q.17 0 .22.16l.05.26q.1-.1.2-.19t.22-.15q.12-.06.25-.1.14-.04.3-.04.34 0 .56.19.22.18.33.48.08-.17.21-.3.12-.13.27-.21.15-.08.32-.12.17-.04.34-.04.3 0 .53.09.23.1.39.27t.24.43q.08.25.08.57v2.29h-.86v-2.29q0-.34-.15-.51-.15-.18-.44-.18-.14 0-.25.05-.11.05-.2.13-.09.09-.13.22-.05.13-.05.29v2.29h-.87v-2.29q0-.36-.15-.52-.14-.17-.42-.17-.19 0-.35.1-.17.09-.31.25v2.63Zm5.87-2.54v1.61q.14.18.32.25.17.07.36.07.2 0 .36-.07.16-.07.27-.22.11-.15.17-.39.06-.24.06-.56 0-.6-.19-.86-.2-.27-.57-.27-.25 0-.43.12-.19.11-.35.32Zm0-2.66v2.05q.21-.23.48-.36.26-.14.6-.14.31 0 .56.13.25.12.43.35.18.23.27.55.1.33.1.73 0 .44-.11.8-.11.36-.31.61t-.49.39q-.28.14-.63.14-.17 0-.3-.03-.14-.03-.25-.09-.12-.06-.22-.15-.09-.08-.18-.19l-.04.24q-.02.09-.07.13-.05.04-.14.04h-.57v-5.2h.87Zm3.85 1.77.06.28q.11-.11.23-.2.12-.09.26-.16.13-.06.29-.1.15-.04.33-.04.3 0 .52.1.23.1.38.28.16.18.23.43.08.25.08.55v2.29h-.86v-2.29q0-.32-.15-.5-.15-.19-.46-.19-.22 0-.42.11-.2.1-.37.27v2.6h-.87v-3.59h.53q.17 0 .22.16Zm5.1 2.5v-.6q-.38.01-.63.06-.26.05-.41.12-.15.08-.22.17-.07.1-.07.22 0 .23.14.32.13.1.35.1.26 0 .46-.1.19-.09.38-.29Zm-1.83-1.88-.15-.28q.62-.57 1.49-.57.31 0 .56.11.25.1.42.28.17.19.26.44.09.26.09.56v2.27h-.39q-.12 0-.19-.04-.07-.03-.1-.15l-.08-.25q-.14.12-.27.21t-.27.16q-.14.06-.3.09-.15.04-.35.04-.22 0-.42-.07-.19-.06-.33-.18t-.22-.3q-.07-.19-.07-.43 0-.13.04-.27.05-.13.15-.26.1-.12.27-.23.16-.11.4-.19.24-.08.56-.13.32-.05.73-.06v-.21q0-.36-.16-.53-.15-.18-.44-.18-.21 0-.35.05-.14.05-.24.11-.11.07-.19.11-.09.05-.19.05-.09 0-.16-.04-.06-.05-.1-.11Zm3.51-.78h.87v3.59h-.87v-3.59Zm.99-1.05q0 .11-.05.21-.04.1-.12.17-.07.08-.17.12-.11.05-.22.05t-.21-.05q-.1-.04-.18-.12-.07-.07-.11-.17-.05-.1-.05-.21 0-.11.05-.21.04-.11.11-.18.08-.07.18-.12.1-.04.21-.04.11 0 .22.04.1.05.17.12.08.07.12.18.05.1.05.21Zm.77-.56h.87v5.2h-.87v-5.2Z"/></svg>