<svg xmlns="http://www.w3.org/2000/svg" width="56" height="56" viewBox="0 0 56 56"><rect width="100%" height="100%" fill="#FFFFFF"/><path fill="#0033A0" d="M14.05 25.16v.88H12.3v4.9h-1.07v-4.9H9.48v-.88h4.57Zm1.59-.16v2.28q.24-.23.53-.37.28-.14.67-.14.34 0 .6.12.26.11.43.32.18.2.27.49.09.28.09.63v2.61h-.99v-2.61q0-.38-.17-.58-.18-.21-.53-.21-.25 0-.48.12-.22.11-.42.31v2.97h-.99V25h.99Zm6.07 1.84h.99v4.1h-.61q-.19 0-.24-.18l-.07-.33q-.25.26-.56.42-.3.15-.71.15-.34 0-.6-.11-.26-.11-.43-.32-.18-.21-.27-.5-.09-.28-.09-.63v-2.6h.99v2.6q0 .38.17.59.18.2.53.2.25 0 .48-.11.22-.12.42-.32v-2.96Zm2.95 4.1h-.99v-4.1h.61q.19 0 .25.18l.06.3q.11-.12.23-.22.12-.1.25-.17.14-.07.29-.12.15-.04.34-.04.39 0 .64.21t.37.56q.1-.2.24-.35.14-.15.32-.24.17-.09.36-.13.2-.05.39-.05.34 0 .61.11.26.1.44.3.18.2.27.49.1.29.1.66v2.61h-.99v-2.61q0-.39-.17-.59-.17-.2-.51-.2-.15 0-.28.05-.13.05-.23.15-.09.1-.15.25t-.06.34v2.61h-.99v-2.61q0-.41-.16-.6-.17-.19-.49-.19-.22 0-.4.11-.19.1-.35.29v3Zm6.7-2.9v1.84q.17.2.37.28.2.09.42.09.22 0 .41-.08.18-.09.31-.26.12-.17.19-.44t.07-.65q0-.68-.22-.98-.23-.3-.65-.3-.28 0-.49.13-.22.13-.41.37Zm0-3.04v2.34q.25-.26.55-.41.3-.16.69-.16.36 0 .64.14.29.14.49.4.2.27.31.64.11.37.11.83 0 .5-.12.91-.13.41-.36.7-.23.29-.55.45-.33.16-.72.16-.19 0-.35-.04-.16-.04-.29-.1-.13-.07-.24-.17-.11-.1-.21-.22l-.04.28q-.03.1-.09.15-.05.04-.15.04h-.66V25h.99Zm4.41 2.02.07.32q.12-.12.26-.23.14-.11.29-.18.16-.07.33-.12.18-.04.39-.04.33 0 .59.12.26.11.44.32.17.2.26.49.09.28.09.63v2.61h-.99v-2.61q0-.38-.17-.58-.17-.21-.52-.21-.26 0-.48.12-.23.11-.43.31v2.97h-.99v-4.1h.61q.19 0 .25.18Zm5.82 2.86v-.69q-.42.02-.72.07-.29.06-.46.14-.18.08-.26.2-.07.11-.07.24 0 .26.15.37.16.11.4.11.31 0 .53-.11.22-.11.43-.33Zm-2.08-2.16-.18-.31q.71-.65 1.7-.65.36 0 .65.12.28.12.48.33.19.21.3.5.1.29.1.64v2.59h-.45q-.14 0-.22-.04-.07-.04-.12-.17l-.08-.3q-.16.14-.31.25-.15.1-.31.18-.16.07-.34.11-.18.03-.4.03-.26 0-.48-.07-.22-.07-.38-.21-.16-.14-.25-.34-.09-.21-.09-.49 0-.15.06-.31.05-.15.17-.29.11-.14.3-.27.19-.12.46-.21.28-.09.64-.15.37-.06.83-.07v-.24q0-.41-.17-.61-.18-.2-.51-.2-.24 0-.4.06-.16.05-.28.12-.12.07-.21.13-.1.05-.22.05-.11 0-.18-.05-.07-.05-.11-.13Zm4.01-.88h.99v4.1h-.99v-4.1Zm1.13-1.2q0 .13-.06.24-.05.11-.13.2-.09.08-.21.13-.11.05-.24.05t-.25-.05q-.11-.05-.19-.13-.09-.09-.14-.2-.05-.11-.05-.24t.05-.25q.05-.11.14-.2.08-.08.19-.13.12-.05.25-.05t.24.05q.12.05.21.13.08.09.13.2.06.12.06.25Zm.88-.64h.99v5.94h-.99V25Z"/></svg>