<?xml version="1.0" standalone="no"?>
<!DOCTYPE svg PUBLIC "-//W3C//DTD SVG 20010904//EN"
 "http://www.w3.org/TR/2001/REC-SVG-20010904/DTD/svg10.dtd">
<svg version="1.0" xmlns="http://www.w3.org/2000/svg"
 width="420.000000pt" height="420.000000pt" viewBox="0 0 420.000000 420.000000"
 preserveAspectRatio="xMidYMid meet">
<metadata>
Created by potrace 1.14, written by Peter Selinger 2001-2017
</metadata>
<g transform="translate(0.000000,420.000000) scale(0.100000,-0.100000)"
fill="#000000" stroke="none">
<path d="M1890 3529 c-25 -4 -63 -11 -85 -14 -22 -4 -43 -9 -48 -12 -4 -2 -17
-6 -30 -9 -55 -10 -72 -14 -106 -24 -20 -7 -43 -14 -51 -18 -8 -3 -19 -6 -25
-7 -30 -3 -124 -63 -170 -108 -56 -54 -73 -85 -89 -155 -8 -36 -16 -42 -44
-37 -71 13 -155 -46 -195 -137 -19 -44 -41 -100 -43 -113 -1 -5 -5 -23 -8 -40
-10 -50 -8 -217 3 -273 6 -29 20 -83 31 -120 19 -64 22 -85 35 -227 4 -33 8
-78 10 -100 2 -22 13 -67 25 -99 20 -58 20 -80 -1 -59 -19 19 -58 2 -74 -31
-25 -52 -25 -92 0 -261 7 -48 31 -153 40 -177 6 -16 -1 -18 -73 -18 -73 0 -81
-2 -106 -27 l-27 -27 6 -181 c3 -99 8 -196 10 -215 2 -19 7 -105 10 -191 l6
-155 -78 -18 c-43 -10 -90 -27 -104 -37 -32 -22 -146 -243 -194 -376 -31 -84
-61 -184 -71 -240 l-4 -23 1645 0 c905 0 1645 1 1645 3 0 1 -11 43 -24 93 -44
161 -172 461 -214 498 -12 11 -22 16 -22 11 0 -4 -7 -2 -15 5 -8 7 -15 9 -15
5 0 -4 -7 -2 -15 5 -8 7 -15 10 -15 7 0 -4 -18 0 -40 8 -42 15 -43 15 -61 15
-10 0 -7 199 6 395 2 30 16 300 17 335 2 41 -6 65 -28 85 -24 22 -36 25 -102
25 -67 0 -73 2 -67 17 4 10 9 27 11 38 2 11 6 31 9 45 31 144 38 188 38 261
-1 85 -23 132 -63 131 -3 0 -15 -3 -27 -6 -25 -8 -25 0 1 73 21 58 25 80 31
181 8 126 14 164 30 204 9 20 13 36 11 36 -3 0 1 15 9 33 27 64 35 203 17 286
-7 32 -4 38 40 83 27 27 46 54 43 59 -4 5 -1 9 6 9 7 0 9 3 6 7 -4 3 -2 12 4
19 15 18 25 164 11 164 -9 0 -22 -21 -28 -47 -6 -30 -53 -66 -86 -66 -53 1
-78 7 -78 17 0 5 -3 7 -6 4 -3 -3 -77 66 -164 153 -87 87 -166 159 -174 159
-9 0 -16 5 -16 10 0 6 -6 10 -14 10 -8 0 -16 4 -18 8 -6 15 -96 62 -165 86
-73 26 -138 42 -200 52 -21 3 -49 8 -63 10 -43 9 -363 12 -410 3z"/>
</g>
</svg>
