<?xml version="1.0" standalone="no"?>
<!DOCTYPE svg PUBLIC "-//W3C//DTD SVG 20010904//EN"
 "http://www.w3.org/TR/2001/REC-SVG-20010904/DTD/svg10.dtd">
<svg version="1.0" xmlns="http://www.w3.org/2000/svg"
 width="980.000000pt" height="980.000000pt" viewBox="0 0 980.000000 980.000000"
 preserveAspectRatio="xMidYMid meet">
<metadata>
Created by potrace 1.14, written by Peter Selinger 2001-2017
</metadata>
<g transform="translate(0.000000,980.000000) scale(0.100000,-0.100000)"
fill="#000000" stroke="none">
<path d="M0 4900 l0 -4900 4900 0 4900 0 0 4900 0 4900 -4900 0 -4900 0 0
-4900z m7125 2414 c530 -91 812 -474 745 -1012 -79 -624 -593 -1417 -1382
-2132 -178 -161 -161 -126 -157 -319 2 -91 0 -172 -5 -179 -6 -10 -53 -13
-210 -12 -110 1 -210 1 -222 1 -12 -1 -50 -23 -85 -49 -329 -248 -813 -539
-1186 -711 -872 -404 -1635 -536 -2143 -369 -240 78 -428 246 -505 452 -28 74
-55 211 -54 270 1 32 5 22 19 -49 77 -383 328 -602 776 -676 111 -19 401 -16
544 5 416 61 833 195 1303 418 1034 490 2002 1270 2634 2122 531 715 708 1363
492 1794 -67 133 -196 260 -339 332 -114 58 -359 118 -493 121 -29 1 -65 5
-82 10 -52 14 254 0 350 -17z m-80 -143 c237 -50 428 -174 519 -337 255 -454
-43 -1237 -790 -2074 -133 -149 -427 -442 -574 -570 -657 -578 -1464 -1068
-2185 -1329 -393 -142 -697 -207 -1005 -218 -190 -6 -314 7 -450 49 -324 100
-513 356 -509 690 1 101 16 181 18 98 3 -131 70 -287 158 -371 101 -96 207
-144 388 -175 128 -22 387 -15 560 15 1136 193 2667 1215 3472 2316 202 277
365 597 429 844 34 129 43 315 20 421 -35 165 -139 300 -286 372 -509 249
-1473 -5 -2525 -667 -159 -100 -155 -97 -155 -91 0 2 17 15 38 27 20 13 70 47
111 76 261 188 777 472 1126 621 380 162 830 291 1122 321 136 15 412 5 518
-18z m-3851 -1327 c8 -3 86 -85 174 -182 87 -97 206 -229 263 -293 57 -63 173
-192 258 -287 85 -95 160 -172 166 -172 11 0 177 179 685 735 96 105 180 194
187 198 7 4 52 6 100 5 l88 -3 3 -936 2 -937 -182 -119 c-296 -193 -287 -189
-360 -184 -17 1 -18 31 -18 481 0 289 -4 480 -9 480 -5 0 -110 -105 -232 -232
-122 -128 -228 -237 -235 -241 -31 -18 -69 10 -202 152 -237 252 -305 321
-314 315 -5 -3 -8 -215 -8 -475 1 -258 -2 -474 -5 -479 -8 -12 -524 -13 -543
-1 -14 8 -14 169 -12 2059 l0 122 89 0 c49 0 96 -3 105 -6z m3632 -7 c4 -4 -2
-29 -15 -55 -35 -71 -158 -278 -214 -359 l-51 -73 -102 0 c-84 0 -103 -3 -108
-16 -3 -9 -6 -71 -6 -138 l0 -122 -104 -114 c-138 -153 -424 -436 -432 -428
-3 4 -5 183 -5 400 1 216 -2 399 -7 405 -6 9 -75 13 -267 15 l-260 3 -3 235
c-2 215 -1 236 15 248 15 10 168 12 785 10 421 -2 770 -6 774 -11z"/>
</g>
</svg>
